<svg width="80" height="26" viewBox="0 0 80 26" fill="none" xmlns="http://www.w3.org/2000/svg">
<mask id="path-1-inside-1_12_41" fill="white">
<path d="M0 0H80V26H0V0Z"/>
</mask>
<path d="M0 1.5H80V-1.5H0V1.5ZM80 24.5H0V27.5H80V24.5Z" fill="#18181B" mask="url(#path-1-inside-1_12_41)"/>
<path d="M4.2 18.084C3.276 18.084 2.55733 17.8367 2.044 17.342C1.54 16.838 1.288 16.138 1.288 15.242V12.176H0V10.356H0.07C0.462 10.356 0.760667 10.258 0.966 10.062C1.18067 9.86601 1.288 9.57201 1.288 9.18001V8.62001H3.388V10.356H5.18V12.176H3.388V15.102C3.388 15.3633 3.43467 15.5827 3.528 15.76C3.62133 15.928 3.766 16.054 3.962 16.138C4.158 16.222 4.40067 16.264 4.69 16.264C4.75533 16.264 4.83 16.2593 4.914 16.25C4.998 16.2407 5.08667 16.2313 5.18 16.222V18C5.04 18.0187 4.88133 18.0373 4.704 18.056C4.52667 18.0747 4.35867 18.084 4.2 18.084Z" fill="#18181B"/>
<path d="M7.81058 18V10.356H9.77058V12.19L9.63058 11.924C9.79858 11.28 10.0739 10.846 10.4566 10.622C10.8486 10.3887 11.3106 10.272 11.8426 10.272H12.2906V12.092H11.6326C11.1192 12.092 10.7039 12.2507 10.3866 12.568C10.0692 12.876 9.91058 13.3147 9.91058 13.884V18H7.81058Z" fill="#18181B"/>
<path d="M18.293 18.168C17.481 18.168 16.7763 17.9907 16.179 17.636C15.5816 17.272 15.1196 16.7867 14.793 16.18C14.4663 15.5733 14.303 14.9013 14.303 14.164C14.303 13.3987 14.471 12.7173 14.807 12.12C15.1523 11.5227 15.6143 11.0513 16.193 10.706C16.7716 10.3607 17.425 10.188 18.153 10.188C18.7596 10.188 19.2963 10.286 19.763 10.482C20.2296 10.6687 20.6216 10.9347 20.939 11.28C21.2656 11.6253 21.513 12.0267 21.681 12.484C21.849 12.932 21.933 13.422 21.933 13.954C21.933 14.1033 21.9236 14.2527 21.905 14.402C21.8956 14.542 21.8723 14.6633 21.835 14.766H16.109V13.226H20.645L19.651 13.954C19.7443 13.5527 19.7396 13.198 19.637 12.89C19.5343 12.5727 19.3523 12.3253 19.091 12.148C18.839 11.9613 18.5263 11.868 18.153 11.868C17.789 11.868 17.4763 11.9567 17.215 12.134C16.9536 12.3113 16.7576 12.5727 16.627 12.918C16.4963 13.2633 16.445 13.6833 16.473 14.178C16.4356 14.6073 16.487 14.9853 16.627 15.312C16.767 15.6387 16.9816 15.8953 17.271 16.082C17.5603 16.2593 17.9103 16.348 18.321 16.348C18.6943 16.348 19.0116 16.2733 19.273 16.124C19.5436 15.9747 19.7536 15.7693 19.903 15.508L21.583 16.306C21.4336 16.6793 21.1956 17.006 20.869 17.286C20.5516 17.566 20.1736 17.7853 19.735 17.944C19.2963 18.0933 18.8156 18.168 18.293 18.168Z" fill="#18181B"/>
<path d="M24.5696 18V10.356H26.6696V18H24.5696ZM24.5696 9.67001V7.57001H26.6696V9.67001H24.5696Z" fill="#18181B"/>
<path d="M29.6063 18V10.356H31.5663V11.868L31.4543 11.532C31.6316 11.0747 31.9163 10.7387 32.3083 10.524C32.7096 10.3 33.1763 10.188 33.7083 10.188C34.2869 10.188 34.791 10.3093 35.2203 10.552C35.659 10.7947 35.9996 11.1353 36.2423 11.574C36.4849 12.0033 36.6063 12.5073 36.6063 13.086V18H34.5063V13.534C34.5063 13.2353 34.4456 12.9787 34.3243 12.764C34.2123 12.5493 34.0489 12.3813 33.8343 12.26C33.6289 12.1387 33.3863 12.078 33.1063 12.078C32.8356 12.078 32.593 12.1387 32.3783 12.26C32.1636 12.3813 31.9956 12.5493 31.8743 12.764C31.7623 12.9787 31.7063 13.2353 31.7063 13.534V18H29.6063Z" fill="#18181B"/>
<path d="M43.0691 18.084C42.1451 18.084 41.4265 17.8367 40.9131 17.342C40.4091 16.838 40.1571 16.138 40.1571 15.242V12.176H38.8691V10.356H38.9391C39.3311 10.356 39.6298 10.258 39.8351 10.062C40.0498 9.86601 40.1571 9.57201 40.1571 9.18001V8.62001H42.2571V10.356H44.0491V12.176H42.2571V15.102C42.2571 15.3633 42.3038 15.5827 42.3971 15.76C42.4905 15.928 42.6351 16.054 42.8311 16.138C43.0271 16.222 43.2698 16.264 43.5591 16.264C43.6245 16.264 43.6991 16.2593 43.7831 16.25C43.8671 16.2407 43.9558 16.2313 44.0491 16.222V18C43.9091 18.0187 43.7505 18.0373 43.5731 18.056C43.3958 18.0747 43.2278 18.084 43.0691 18.084Z" fill="#18181B"/>
<path d="M49.0457 18.168C48.4951 18.168 48.0191 18.0793 47.6177 17.902C47.2164 17.7247 46.9084 17.4727 46.6937 17.146C46.4791 16.81 46.3717 16.4133 46.3717 15.956C46.3717 15.5267 46.4697 15.1487 46.6657 14.822C46.8617 14.486 47.1604 14.206 47.5617 13.982C47.9724 13.758 48.4811 13.5993 49.0877 13.506L51.4257 13.128V14.668L49.4657 15.018C49.1671 15.074 48.9384 15.172 48.7797 15.312C48.6211 15.4427 48.5417 15.634 48.5417 15.886C48.5417 16.1193 48.6304 16.3013 48.8077 16.432C48.9851 16.5627 49.2044 16.628 49.4657 16.628C49.8111 16.628 50.1144 16.5533 50.3757 16.404C50.6371 16.2547 50.8377 16.054 50.9777 15.802C51.1271 15.5407 51.2017 15.256 51.2017 14.948V12.96C51.2017 12.6707 51.0851 12.428 50.8517 12.232C50.6277 12.036 50.3197 11.938 49.9277 11.938C49.5544 11.938 49.2231 12.0407 48.9337 12.246C48.6537 12.4513 48.4484 12.722 48.3177 13.058L46.6377 12.26C46.7871 11.8307 47.0251 11.462 47.3517 11.154C47.6784 10.846 48.0704 10.608 48.5277 10.44C48.9851 10.272 49.4844 10.188 50.0257 10.188C50.6697 10.188 51.2391 10.3047 51.7337 10.538C52.2284 10.7713 52.6111 11.098 52.8817 11.518C53.1617 11.9287 53.3017 12.4093 53.3017 12.96V18H51.3417V16.768L51.8177 16.684C51.5937 17.02 51.3464 17.3 51.0757 17.524C50.8051 17.7387 50.5017 17.8973 50.1657 18C49.8297 18.112 49.4564 18.168 49.0457 18.168Z" fill="#18181B"/>
<path d="M57.1135 16.9815L57.1135 16.9816L57.1202 16.9881C57.6721 17.5195 58.3149 17.932 59.0443 18.2258C59.7804 18.5223 60.5724 18.668 61.4151 18.668C62.2578 18.668 63.0498 18.5223 63.7859 18.2258C64.516 17.9317 65.1556 17.5183 65.6992 16.9849L65.6993 16.9848C66.2501 16.4442 66.6791 15.8158 66.9846 15.1029C67.2933 14.3827 67.4451 13.6058 67.4451 12.778C67.4451 11.9513 67.2937 11.1753 66.9858 10.4558C66.6895 9.74147 66.2641 9.11597 65.7115 8.58341C65.1682 8.05078 64.5292 7.63796 63.7999 7.34418C63.0631 7.04742 62.2663 6.90198 61.4151 6.90198C60.5638 6.90198 59.7671 7.04742 59.0303 7.34418C58.3009 7.63795 57.6581 8.05042 57.1062 8.58182L57.1062 8.5818L57.1029 8.58507C56.5605 9.11726 56.1365 9.74132 55.8315 10.453L55.8315 10.453L55.8291 10.4586C55.5313 11.1774 55.3851 11.9524 55.3851 12.778C55.3851 13.6058 55.5368 14.3827 55.8455 15.1029C56.1501 15.8138 56.5731 16.4412 57.1135 16.9815ZM62.5418 15.4932L62.5417 15.4932L62.538 15.4948C62.2033 15.6348 61.8311 15.708 61.4151 15.708C61 15.708 60.6221 15.6351 60.2763 15.494C59.9337 15.3503 59.6333 15.1526 59.3719 14.8997C59.115 14.642 58.9146 14.3366 58.7713 13.9783C58.6295 13.6237 58.5551 13.2256 58.5551 12.778C58.5551 12.3301 58.6295 11.9383 58.7698 11.5953L58.7699 11.5953L58.7713 11.5917C58.9152 11.2321 59.1164 10.9258 59.3746 10.6675C59.6347 10.4074 59.9318 10.2122 60.2689 10.079L60.2689 10.079L60.2744 10.0768C60.6207 9.93508 60.9992 9.86198 61.4151 9.86198C61.8311 9.86198 62.2033 9.93511 62.538 10.0752L62.5379 10.0754L62.5509 10.0804C62.8972 10.2142 63.1973 10.4094 63.4555 10.6675C63.7138 10.9258 63.915 11.2321 64.0588 11.5917L64.0588 11.5917L64.0603 11.5953C64.2006 11.9383 64.2751 12.3301 64.2751 12.778C64.2751 13.2256 64.2007 13.6237 64.0588 13.9783C63.9155 14.3366 63.7152 14.642 63.4582 14.8997C63.1982 15.1512 62.8942 15.349 62.5418 15.4932ZM69.3841 18V18.5H69.8841H72.0541H72.5541V18V13.1792L76.3422 18.2974L76.4921 18.5H76.7441H78.4241H78.9241V18V7.56998V7.06998H78.4241H76.2541H75.7541V7.56998V12.2817L71.9484 7.26768L71.7983 7.06998H71.5501H69.8841H69.3841V7.56998V18Z" fill="#FFA000"/>
<path d="M57.1135 16.9815L57.1135 16.9816L57.1202 16.9881C57.6721 17.5195 58.3149 17.932 59.0443 18.2258C59.7804 18.5223 60.5724 18.668 61.4151 18.668C62.2578 18.668 63.0498 18.5223 63.7859 18.2258C64.516 17.9317 65.1556 17.5183 65.6992 16.9849L65.6993 16.9848C66.2501 16.4442 66.6791 15.8158 66.9846 15.1029C67.2933 14.3827 67.4451 13.6058 67.4451 12.778C67.4451 11.9513 67.2937 11.1753 66.9858 10.4558C66.6895 9.74147 66.2641 9.11597 65.7115 8.58341C65.1682 8.05078 64.5292 7.63796 63.7999 7.34418C63.0631 7.04742 62.2663 6.90198 61.4151 6.90198C60.5638 6.90198 59.7671 7.04742 59.0303 7.34418C58.3009 7.63795 57.6581 8.05042 57.1062 8.58182L57.1062 8.5818L57.1029 8.58507C56.5605 9.11726 56.1365 9.74132 55.8315 10.453L55.8315 10.453L55.8291 10.4586C55.5313 11.1774 55.3851 11.9524 55.3851 12.778C55.3851 13.6058 55.5368 14.3827 55.8455 15.1029C56.1501 15.8138 56.5731 16.4412 57.1135 16.9815ZM62.5418 15.4932L62.5417 15.4932L62.538 15.4948C62.2033 15.6348 61.8311 15.708 61.4151 15.708C61 15.708 60.6221 15.6351 60.2763 15.494C59.9337 15.3503 59.6333 15.1526 59.3719 14.8997C59.115 14.642 58.9146 14.3366 58.7713 13.9783C58.6295 13.6237 58.5551 13.2256 58.5551 12.778C58.5551 12.3301 58.6295 11.9383 58.7698 11.5953L58.7699 11.5953L58.7713 11.5917C58.9152 11.2321 59.1164 10.9258 59.3746 10.6675C59.6347 10.4074 59.9318 10.2122 60.2689 10.079L60.2689 10.079L60.2744 10.0768C60.6207 9.93508 60.9992 9.86198 61.4151 9.86198C61.8311 9.86198 62.2033 9.93511 62.538 10.0752L62.5379 10.0754L62.5509 10.0804C62.8972 10.2142 63.1973 10.4094 63.4555 10.6675C63.7138 10.9258 63.915 11.2321 64.0588 11.5917L64.0588 11.5917L64.0603 11.5953C64.2006 11.9383 64.2751 12.3301 64.2751 12.778C64.2751 13.2256 64.2007 13.6237 64.0588 13.9783C63.9155 14.3366 63.7152 14.642 63.4582 14.8997C63.1982 15.1512 62.8942 15.349 62.5418 15.4932ZM69.3841 18V18.5H69.8841H72.0541H72.5541V18V13.1792L76.3422 18.2974L76.4921 18.5H76.7441H78.4241H78.9241V18V7.56998V7.06998H78.4241H76.2541H75.7541V7.56998V12.2817L71.9484 7.26768L71.7983 7.06998H71.5501H69.8841H69.3841V7.56998V18Z" stroke="#FF4A81"/>
<path d="M57.1135 16.9815L57.1135 16.9816L57.1202 16.9881C57.6721 17.5195 58.3149 17.932 59.0443 18.2258C59.7804 18.5223 60.5724 18.668 61.4151 18.668C62.2578 18.668 63.0498 18.5223 63.7859 18.2258C64.516 17.9317 65.1556 17.5183 65.6992 16.9849L65.6993 16.9848C66.2501 16.4442 66.6791 15.8158 66.9846 15.1029C67.2933 14.3827 67.4451 13.6058 67.4451 12.778C67.4451 11.9513 67.2937 11.1753 66.9858 10.4558C66.6895 9.74147 66.2641 9.11597 65.7115 8.58341C65.1682 8.05078 64.5292 7.63796 63.7999 7.34418C63.0631 7.04742 62.2663 6.90198 61.4151 6.90198C60.5638 6.90198 59.7671 7.04742 59.0303 7.34418C58.3009 7.63795 57.6581 8.05042 57.1062 8.58182L57.1062 8.5818L57.1029 8.58507C56.5605 9.11726 56.1365 9.74132 55.8315 10.453L55.8315 10.453L55.8291 10.4586C55.5313 11.1774 55.3851 11.9524 55.3851 12.778C55.3851 13.6058 55.5368 14.3827 55.8455 15.1029C56.1501 15.8138 56.5731 16.4412 57.1135 16.9815ZM62.5418 15.4932L62.5417 15.4932L62.538 15.4948C62.2033 15.6348 61.8311 15.708 61.4151 15.708C61 15.708 60.6221 15.6351 60.2763 15.494C59.9337 15.3503 59.6333 15.1526 59.3719 14.8997C59.115 14.642 58.9146 14.3366 58.7713 13.9783C58.6295 13.6237 58.5551 13.2256 58.5551 12.778C58.5551 12.3301 58.6295 11.9383 58.7698 11.5953L58.7699 11.5953L58.7713 11.5917C58.9152 11.2321 59.1164 10.9258 59.3746 10.6675C59.6347 10.4074 59.9318 10.2122 60.2689 10.079L60.2689 10.079L60.2744 10.0768C60.6207 9.93508 60.9992 9.86198 61.4151 9.86198C61.8311 9.86198 62.2033 9.93511 62.538 10.0752L62.5379 10.0754L62.5509 10.0804C62.8972 10.2142 63.1973 10.4094 63.4555 10.6675C63.7138 10.9258 63.915 11.2321 64.0588 11.5917L64.0588 11.5917L64.0603 11.5953C64.2006 11.9383 64.2751 12.3301 64.2751 12.778C64.2751 13.2256 64.2007 13.6237 64.0588 13.9783C63.9155 14.3366 63.7152 14.642 63.4582 14.8997C63.1982 15.1512 62.8942 15.349 62.5418 15.4932ZM69.3841 18V18.5H69.8841H72.0541H72.5541V18V13.1792L76.3422 18.2974L76.4921 18.5H76.7441H78.4241H78.9241V18V7.56998V7.06998H78.4241H76.2541H75.7541V7.56998V12.2817L71.9484 7.26768L71.7983 7.06998H71.5501H69.8841H69.3841V7.56998V18Z" stroke="#FFA000" stroke-opacity="0.91"/>
</svg>
