<svg width="9" height="10" viewBox="0 0 9 10" fill="none" xmlns="http://www.w3.org/2000/svg">
<path d="M2.71801 8.72197L2.71703 8.72138C2.10478 8.34829 1.63024 7.84995 1.29502 7.2274C0.959959 6.60514 0.793066 5.91668 0.793066 5.16399C0.793066 4.38353 0.964541 3.68495 1.30991 3.07096L1.31049 3.06993L1.31049 3.06994C1.66414 2.45822 2.13816 1.9744 2.73182 1.62012C3.32722 1.2648 3.99852 1.08799 4.74307 1.08799C5.36011 1.08799 5.91009 1.18762 6.39101 1.38946C6.86996 1.58117 7.2743 1.85512 7.60221 2.21179C7.93812 2.56703 8.19235 2.97981 8.36482 3.4492M2.71801 8.72197L8.27107 3.48399M2.71801 8.72197C3.33324 9.08726 4.05617 9.26799 4.88307 9.26799C5.41531 9.26799 5.90701 9.19194 6.35729 9.03865L6.3573 9.03867L6.35908 9.03803C6.8081 8.87561 7.19711 8.65035 7.52467 8.36146C7.86244 8.07182 8.11025 7.73228 8.26591 7.34313L8.30079 7.25595L8.21597 7.21566L6.53597 6.41766L6.45224 6.37789L6.40624 6.45837C6.26628 6.70332 6.0698 6.89572 5.81476 7.03643L5.81475 7.03642L5.81345 7.03716C5.57046 7.17602 5.27114 7.24799 4.91107 7.24799C4.51544 7.24799 4.18472 7.16278 3.91432 6.99734L2.71801 8.72197ZM8.36482 3.4492C8.36486 3.4493 8.36489 3.4494 8.36493 3.44951L8.27107 3.48399M8.36482 3.4492C8.36478 3.44909 8.36474 3.44898 8.3647 3.44888L8.27107 3.48399M8.36482 3.4492C8.53739 3.90952 8.62307 4.41146 8.62307 4.95399C8.62307 5.10655 8.61359 5.25908 8.59465 5.41154M8.27107 3.48399C8.43907 3.93199 8.52307 4.42199 8.52307 4.95399C8.52307 5.10332 8.51373 5.25266 8.49507 5.40199M8.59465 5.41154C8.59472 5.41057 8.59478 5.40961 8.59485 5.40864L8.49507 5.40199M8.59465 5.41154C8.59453 5.41249 8.59441 5.41344 8.59429 5.41439L8.49507 5.40199M8.59465 5.41154L8.49507 5.40199M3.18789 5.86599C3.1819 5.83312 3.17664 5.79979 3.17211 5.76599L3.18789 5.86599ZM6.1322 3.92161C6.15405 3.98716 6.17123 4.05527 6.18364 4.12599H3.25404C3.27079 4.06627 3.28965 4.00874 3.3106 3.95338C3.43524 3.62395 3.61966 3.38065 3.86122 3.21674C4.10356 3.05229 4.39595 2.96799 4.74307 2.96799C5.09917 2.96799 5.38986 3.05673 5.62154 3.22834L5.62149 3.22841L5.62492 3.23074C5.86675 3.39484 6.0357 3.62334 6.13192 3.92077L6.13192 3.92077L6.1322 3.92161Z" fill="black" stroke="black" stroke-width="0.2"/>
</svg>
