<svg width="111" height="26" viewBox="0 0 111 26" fill="none" xmlns="http://www.w3.org/2000/svg">
<rect x="0.5" y="0.5" width="110" height="25" stroke="black"/>
<path d="M10.7901 18.084C9.86609 18.084 9.14742 17.8367 8.63409 17.342C8.13009 16.838 7.87809 16.138 7.87809 15.242V12.176H6.59009V10.356H6.66009C7.05209 10.356 7.35075 10.258 7.55609 10.062C7.77075 9.86601 7.87809 9.57201 7.87809 9.18001V8.62001H9.97809V10.356H11.7701V12.176H9.97809V15.102C9.97809 15.3633 10.0248 15.5827 10.1181 15.76C10.2114 15.928 10.3561 16.054 10.5521 16.138C10.7481 16.222 10.9908 16.264 11.2801 16.264C11.3454 16.264 11.4201 16.2593 11.5041 16.25C11.5881 16.2407 11.6768 16.2313 11.7701 16.222V18C11.6301 18.0187 11.4714 18.0373 11.2941 18.056C11.1168 18.0747 10.9488 18.084 10.7901 18.084Z" fill="black"/>
<path d="M14.4007 18V10.356H16.3607V12.19L16.2207 11.924C16.3887 11.28 16.664 10.846 17.0467 10.622C17.4387 10.3887 17.9007 10.272 18.4327 10.272H18.8807V12.092H18.2227C17.7093 12.092 17.294 12.2507 16.9767 12.568C16.6593 12.876 16.5007 13.3147 16.5007 13.884V18H14.4007Z" fill="black"/>
<path d="M24.8831 18.168C24.0711 18.168 23.3664 17.9907 22.7691 17.636C22.1717 17.272 21.7097 16.7867 21.3831 16.18C21.0564 15.5733 20.8931 14.9013 20.8931 14.164C20.8931 13.3987 21.0611 12.7173 21.3971 12.12C21.7424 11.5227 22.2044 11.0513 22.7831 10.706C23.3617 10.3607 24.0151 10.188 24.7431 10.188C25.3497 10.188 25.8864 10.286 26.3531 10.482C26.8197 10.6687 27.2117 10.9347 27.5291 11.28C27.8557 11.6253 28.1031 12.0267 28.2711 12.484C28.4391 12.932 28.5231 13.422 28.5231 13.954C28.5231 14.1033 28.5137 14.2527 28.4951 14.402C28.4857 14.542 28.4624 14.6633 28.4251 14.766H22.6991V13.226H27.2351L26.2411 13.954C26.3344 13.5527 26.3297 13.198 26.2271 12.89C26.1244 12.5727 25.9424 12.3253 25.6811 12.148C25.4291 11.9613 25.1164 11.868 24.7431 11.868C24.3791 11.868 24.0664 11.9567 23.8051 12.134C23.5437 12.3113 23.3477 12.5727 23.2171 12.918C23.0864 13.2633 23.0351 13.6833 23.0631 14.178C23.0257 14.6073 23.0771 14.9853 23.2171 15.312C23.3571 15.6387 23.5717 15.8953 23.8611 16.082C24.1504 16.2593 24.5004 16.348 24.9111 16.348C25.2844 16.348 25.6017 16.2733 25.8631 16.124C26.1337 15.9747 26.3437 15.7693 26.4931 15.508L28.1731 16.306C28.0237 16.6793 27.7857 17.006 27.4591 17.286C27.1417 17.566 26.7637 17.7853 26.3251 17.944C25.8864 18.0933 25.4057 18.168 24.8831 18.168Z" fill="black"/>
<path d="M31.1597 18V10.356H33.2597V18H31.1597ZM31.1597 9.67001V7.57001H33.2597V9.67001H31.1597Z" fill="black"/>
<path d="M36.1964 18V10.356H38.1564V11.868L38.0444 11.532C38.2217 11.0747 38.5064 10.7387 38.8984 10.524C39.2997 10.3 39.7664 10.188 40.2984 10.188C40.877 10.188 41.381 10.3093 41.8104 10.552C42.249 10.7947 42.5897 11.1353 42.8324 11.574C43.075 12.0033 43.1964 12.5073 43.1964 13.086V18H41.0964V13.534C41.0964 13.2353 41.0357 12.9787 40.9144 12.764C40.8024 12.5493 40.639 12.3813 40.4244 12.26C40.219 12.1387 39.9764 12.078 39.6964 12.078C39.4257 12.078 39.183 12.1387 38.9684 12.26C38.7537 12.3813 38.5857 12.5493 38.4644 12.764C38.3524 12.9787 38.2964 13.2353 38.2964 13.534V18H36.1964Z" fill="black"/>
<path d="M49.6592 18.084C48.7352 18.084 48.0166 17.8367 47.5032 17.342C46.9992 16.838 46.7472 16.138 46.7472 15.242V12.176H45.4592V10.356H45.5292C45.9212 10.356 46.2199 10.258 46.4252 10.062C46.6399 9.86601 46.7472 9.57201 46.7472 9.18001V8.62001H48.8472V10.356H50.6392V12.176H48.8472V15.102C48.8472 15.3633 48.8939 15.5827 48.9872 15.76C49.0806 15.928 49.2252 16.054 49.4212 16.138C49.6172 16.222 49.8599 16.264 50.1492 16.264C50.2146 16.264 50.2892 16.2593 50.3732 16.25C50.4572 16.2407 50.5459 16.2313 50.6392 16.222V18C50.4992 18.0187 50.3406 18.0373 50.1632 18.056C49.9859 18.0747 49.8179 18.084 49.6592 18.084Z" fill="black"/>
<path d="M55.6358 18.168C55.0851 18.168 54.6091 18.0793 54.2078 17.902C53.8065 17.7247 53.4985 17.4727 53.2838 17.146C53.0691 16.81 52.9618 16.4133 52.9618 15.956C52.9618 15.5267 53.0598 15.1487 53.2558 14.822C53.4518 14.486 53.7505 14.206 54.1518 13.982C54.5625 13.758 55.0711 13.5993 55.6778 13.506L58.0158 13.128V14.668L56.0558 15.018C55.7571 15.074 55.5285 15.172 55.3698 15.312C55.2111 15.4427 55.1318 15.634 55.1318 15.886C55.1318 16.1193 55.2205 16.3013 55.3978 16.432C55.5751 16.5627 55.7945 16.628 56.0558 16.628C56.4011 16.628 56.7045 16.5533 56.9658 16.404C57.2271 16.2547 57.4278 16.054 57.5678 15.802C57.7171 15.5407 57.7918 15.256 57.7918 14.948V12.96C57.7918 12.6707 57.6751 12.428 57.4418 12.232C57.2178 12.036 56.9098 11.938 56.5178 11.938C56.1445 11.938 55.8131 12.0407 55.5238 12.246C55.2438 12.4513 55.0385 12.722 54.9078 13.058L53.2278 12.26C53.3771 11.8307 53.6151 11.462 53.9418 11.154C54.2685 10.846 54.6605 10.608 55.1178 10.44C55.5751 10.272 56.0745 10.188 56.6158 10.188C57.2598 10.188 57.8291 10.3047 58.3238 10.538C58.8185 10.7713 59.2011 11.098 59.4718 11.518C59.7518 11.9287 59.8918 12.4093 59.8918 12.96V18H57.9318V16.768L58.4078 16.684C58.1838 17.02 57.9365 17.3 57.6658 17.524C57.3951 17.7387 57.0918 17.8973 56.7558 18C56.4198 18.112 56.0465 18.168 55.6358 18.168Z" fill="black"/>
<path d="M68.0052 18.168C67.2212 18.168 66.4932 18.0326 65.8212 17.762C65.1492 17.4913 64.5612 17.1133 64.0572 16.628C63.5625 16.1333 63.1752 15.5593 62.8952 14.906C62.6152 14.2526 62.4752 13.5433 62.4752 12.778C62.4752 12.0126 62.6105 11.3033 62.8812 10.65C63.1612 9.99664 63.5485 9.42731 64.0432 8.94198C64.5472 8.45664 65.1352 8.07864 65.8072 7.80798C66.4792 7.53731 67.2118 7.40198 68.0052 7.40198C68.7985 7.40198 69.5312 7.53731 70.2032 7.80798C70.8752 8.07864 71.4585 8.45664 71.9532 8.94198C72.4572 9.42731 72.8445 9.99664 73.1152 10.65C73.3952 11.3033 73.5352 12.0126 73.5352 12.778C73.5352 13.5433 73.3952 14.2526 73.1152 14.906C72.8352 15.5593 72.4432 16.1333 71.9392 16.628C71.4445 17.1133 70.8612 17.4913 70.1892 17.762C69.5172 18.0326 68.7892 18.168 68.0052 18.168ZM68.0052 16.208C68.4812 16.208 68.9198 16.124 69.3212 15.956C69.7318 15.788 70.0912 15.5546 70.3992 15.256C70.7072 14.948 70.9452 14.584 71.1132 14.164C71.2812 13.744 71.3652 13.282 71.3652 12.778C71.3652 12.274 71.2812 11.8166 71.1132 11.406C70.9452 10.986 70.7072 10.622 70.3992 10.314C70.0912 10.006 69.7318 9.77264 69.3212 9.61398C68.9198 9.44598 68.4812 9.36198 68.0052 9.36198C67.5292 9.36198 67.0858 9.44598 66.6752 9.61398C66.2738 9.77264 65.9192 10.006 65.6112 10.314C65.3032 10.622 65.0652 10.986 64.8972 11.406C64.7292 11.8166 64.6452 12.274 64.6452 12.778C64.6452 13.282 64.7292 13.744 64.8972 14.164C65.0652 14.584 65.3032 14.948 65.6112 15.256C65.9192 15.5546 66.2738 15.788 66.6752 15.956C67.0858 16.124 67.5292 16.208 68.0052 16.208Z" fill="#FFA000"/>
<path d="M76.4742 18V7.56998H78.1402L83.7402 14.948L82.8442 15.158V7.56998H85.0142V18H83.3342L77.8322 10.566L78.6442 10.356V18H76.4742Z" fill="#FFA00"/>
<path d="M91.7634 18.168C90.9981 18.168 90.3074 17.9953 89.6914 17.65C89.0847 17.2953 88.5994 16.8147 88.2354 16.208C87.8807 15.6013 87.7034 14.92 87.7034 14.164C87.7034 13.408 87.8807 12.7313 88.2354 12.134C88.5901 11.5273 89.0754 11.0513 89.6914 10.706C90.3074 10.3607 90.9981 10.188 91.7634 10.188C92.3327 10.188 92.8601 10.286 93.3454 10.482C93.8307 10.678 94.2461 10.9533 94.5914 11.308C94.9367 11.6533 95.1841 12.064 95.3334 12.54L93.5134 13.324C93.3827 12.9413 93.1587 12.638 92.8414 12.414C92.5334 12.19 92.1741 12.078 91.7634 12.078C91.3994 12.078 91.0727 12.1667 90.7834 12.344C90.5034 12.5213 90.2794 12.7687 90.1114 13.086C89.9527 13.4033 89.8734 13.7673 89.8734 14.178C89.8734 14.5887 89.9527 14.9527 90.1114 15.27C90.2794 15.5873 90.5034 15.8347 90.7834 16.012C91.0727 16.1893 91.3994 16.278 91.7634 16.278C92.1834 16.278 92.5474 16.166 92.8554 15.942C93.1634 15.718 93.3827 15.4147 93.5134 15.032L95.3334 15.83C95.1934 16.278 94.9507 16.6793 94.6054 17.034C94.2601 17.3887 93.8447 17.6687 93.3594 17.874C92.8741 18.07 92.3421 18.168 91.7634 18.168Z" fill="black"/>
<path d="M101.652 18.168C100.84 18.168 100.135 17.9907 99.538 17.636C98.9407 17.272 98.4787 16.7867 98.152 16.18C97.8253 15.5733 97.662 14.9013 97.662 14.164C97.662 13.3987 97.83 12.7173 98.166 12.12C98.5113 11.5227 98.9733 11.0513 99.552 10.706C100.131 10.3607 100.784 10.188 101.512 10.188C102.119 10.188 102.655 10.286 103.122 10.482C103.589 10.6687 103.981 10.9347 104.298 11.28C104.625 11.6253 104.872 12.0267 105.04 12.484C105.208 12.932 105.292 13.422 105.292 13.954C105.292 14.1033 105.283 14.2527 105.264 14.402C105.255 14.542 105.231 14.6633 105.194 14.766H99.468V13.226H104.004L103.01 13.954C103.103 13.5527 103.099 13.198 102.996 12.89C102.893 12.5727 102.711 12.3253 102.45 12.148C102.198 11.9613 101.885 11.868 101.512 11.868C101.148 11.868 100.835 11.9567 100.574 12.134C100.313 12.3113 100.117 12.5727 99.986 12.918C99.8553 13.2633 99.804 13.6833 99.832 14.178C99.7947 14.6073 99.846 14.9853 99.986 15.312C100.126 15.6387 100.341 15.8953 100.63 16.082C100.919 16.2593 101.269 16.348 101.68 16.348C102.053 16.348 102.371 16.2733 102.632 16.124C102.903 15.9747 103.113 15.7693 103.262 15.508L104.942 16.306C104.793 16.6793 104.555 17.006 104.228 17.286C103.911 17.566 103.533 17.7853 103.094 17.944C102.655 18.0933 102.175 18.168 101.652 18.168Z" fill="black"/>
</svg>
